<svg width="530" height="834" viewBox="0 0 530 834" fill="none" xmlns="http://www.w3.org/2000/svg">
<g filter="url(#filter0_d_3183_1558)">
<rect x="4" width="530.478" height="834" fill="#F0855D"/>
</g>
<g clip-path="url(#clip0_3183_1558)">
<path d="M-34 722.641C-34 743.075 -17.4345 759.641 3 759.641C23.4345 759.641 40 743.075 40 722.641C40 702.206 23.4345 685.641 2.99999 685.641C-17.4345 685.641 -34 702.206 -34 722.641Z" fill="#59A0A0"/>
<path d="M299 110C299 89.5655 282.435 73 262 73C241.565 73 225 89.5655 225 110C225 130.435 241.565 147 262 147C282.435 147 299 130.435 299 110Z" fill="#59A0A0"/>
<path d="M224 538.641L298 538.641C298 558.001 290.204 576.569 276.326 590.259C262.448 603.95 243.626 611.641 224 611.641L224 538.641Z" fill="#CFDEFE"/>
<path d="M224 538.641L298 538.641L298 464.641L224 464.641L224 538.641Z" fill="#24212C" fill-opacity="0.2"/>
<mask id="mask0_3183_1558" style="mask-type:luminance" maskUnits="userSpaceOnUse" x="224" y="833" width="74" height="74">
<path d="M224.035 906.789L297.794 906.789L297.794 833.119L224.035 833.119L224.035 906.789Z" fill="white"/>
</mask>
<g mask="url(#mask0_3183_1558)">
<path d="M409.135 938.983L411.738 936.383L289.663 814.454L287.06 817.054L409.135 938.983Z" fill="#CFDEFE"/>
<path d="M394.259 938.983L396.863 936.383L274.788 814.454L272.184 817.054L394.259 938.983Z" fill="#CFDEFE"/>
<path d="M379.384 938.983L381.987 936.383L259.912 814.454L257.309 817.054L379.384 938.983Z" fill="#CFDEFE"/>
<path d="M364.506 938.983L367.109 936.383L245.034 814.454L242.431 817.054L364.506 938.983Z" fill="#CFDEFE"/>
<path d="M349.631 938.983L352.234 936.383L230.159 814.454L227.556 817.054L349.631 938.983Z" fill="#CFDEFE"/>
<path d="M334.755 938.983L337.358 936.383L215.283 814.454L212.68 817.054L334.755 938.983Z" fill="#CFDEFE"/>
<path d="M319.878 938.983L322.481 936.383L200.406 814.454L197.803 817.054L319.878 938.983Z" fill="#CFDEFE"/>
<path d="M305.002 938.983L307.605 936.383L185.53 814.454L182.927 817.054L305.002 938.983Z" fill="#CFDEFE"/>
<path d="M290.126 938.983L292.729 936.383L170.654 814.454L168.051 817.054L290.126 938.983Z" fill="#CFDEFE"/>
<path d="M275.249 938.983L277.852 936.383L155.777 814.454L153.174 817.054L275.249 938.983Z" fill="#CFDEFE"/>
<path d="M260.373 938.983L262.977 936.383L140.902 814.454L138.298 817.054L260.373 938.983Z" fill="#CFDEFE"/>
<path d="M245.498 938.983L248.101 936.383L126.026 814.454L123.423 817.054L245.498 938.983Z" fill="#CFDEFE"/>
<path d="M230.62 938.983L233.223 936.383L111.148 814.454L108.545 817.054L230.62 938.983Z" fill="#CFDEFE"/>
</g>
<path d="M150 832.641L224 832.641L224 759.641L150 759.641L150 832.641Z" fill="#24212C" fill-opacity="0.2"/>
<path d="M113 869.641C113 890.075 129.565 906.641 150 906.641C170.435 906.641 187 890.075 187 869.641C187 849.206 170.435 832.641 150 832.641C129.565 832.641 113 849.206 113 869.641Z" fill="#59A0A0"/>
<path d="M114 35.8594C114 15.4248 97.4345 -1.14064 77 -1.14063C56.5655 -1.14063 40 15.4248 40 35.8594C40 56.2939 56.5655 72.8594 77 72.8594C97.4346 72.8594 114 56.2939 114 35.8594Z" fill="#59A0A0"/>
<path d="M150 759.641L224 759.641L224 685.641L150 685.641L150 759.641Z" fill="white"/>
<path d="M77 145.859L3 145.859L3.00001 219.859L77 219.859L77 145.859Z" fill="white"/>
<path d="M150 759.641L224 759.641L224 685.641L150 685.641L150 759.641Z" fill="#CFDEFE"/>
<path d="M77 145.859L3 145.859L3.00001 219.859L77 219.859L77 145.859Z" fill="#2B262C"/>
<path d="M150 759.641L150 685.641L224 685.641C224 705.267 216.204 724.089 202.326 737.967C188.448 751.844 169.626 759.641 150 759.641Z" fill="#24212C" fill-opacity="0.2"/>
<path d="M77 145.859L77 219.859L3.00001 219.859C3.00001 200.233 10.7964 181.411 24.6741 167.533C38.5518 153.656 57.374 145.859 77 145.859Z" fill="#24212C" fill-opacity="0.2"/>
<path d="M224 538.641L150 538.641L150 611.641L224 611.641L224 538.641Z" fill="#24212C" fill-opacity="0.2"/>
<path d="M3 366.859L77 366.859L77 293.859L2.99999 293.859L3 366.859Z" fill="#24212C" fill-opacity="0.2"/>
<mask id="mask1_3183_1558" style="mask-type:luminance" maskUnits="userSpaceOnUse" x="150" y="612" width="75" height="74">
<path d="M150.276 612.111L150.276 685.781L224.035 685.781L224.035 612.111L150.276 612.111Z" fill="white"/>
</mask>
<g mask="url(#mask1_3183_1558)">
<path d="M158.568 711.209L161.171 708.609L39.0964 586.68L36.4933 589.28L158.568 711.209Z" fill="#24212C" fill-opacity="0.2"/>
<path d="M173.444 711.209L176.047 708.609L53.9719 586.68L51.3688 589.28L173.444 711.209Z" fill="#24212C" fill-opacity="0.2"/>
<path d="M188.321 711.209L190.924 708.609L68.8493 586.68L66.2462 589.28L188.321 711.209Z" fill="#24212C" fill-opacity="0.2"/>
<path d="M203.197 711.209L205.8 708.609L83.7251 586.68L81.1219 589.28L203.197 711.209Z" fill="#24212C" fill-opacity="0.2"/>
<path d="M218.072 711.209L220.676 708.609L98.6005 586.68L95.9974 589.28L218.072 711.209Z" fill="#24212C" fill-opacity="0.2"/>
<path d="M232.95 711.209L235.553 708.609L113.478 586.68L110.875 589.28L232.95 711.209Z" fill="#24212C" fill-opacity="0.2"/>
<path d="M247.826 711.209L250.429 708.609L128.354 586.68L125.751 589.28L247.826 711.209Z" fill="#24212C" fill-opacity="0.2"/>
<path d="M262.701 711.209L265.304 708.609L143.229 586.68L140.626 589.28L262.701 711.209Z" fill="#24212C" fill-opacity="0.2"/>
<path d="M277.579 711.209L280.182 708.609L158.107 586.68L155.504 589.28L277.579 711.209Z" fill="#24212C" fill-opacity="0.2"/>
<path d="M292.454 711.209L295.057 708.609L172.982 586.68L170.379 589.28L292.454 711.209Z" fill="#24212C" fill-opacity="0.2"/>
<path d="M307.332 711.209L309.935 708.609L187.86 586.68L185.257 589.28L307.332 711.209Z" fill="#24212C" fill-opacity="0.2"/>
<path d="M322.207 711.209L324.81 708.609L202.735 586.68L200.132 589.28L322.207 711.209Z" fill="#24212C" fill-opacity="0.2"/>
<path d="M337.083 711.209L339.686 708.609L217.611 586.68L215.008 589.28L337.083 711.209Z" fill="#24212C" fill-opacity="0.2"/>
</g>
<mask id="mask2_3183_1558" style="mask-type:luminance" maskUnits="userSpaceOnUse" x="2" y="219" width="75" height="75">
<path d="M76.7238 293.389L76.7238 219.719L2.96509 219.719L2.9651 293.389L76.7238 293.389Z" fill="white"/>
</mask>
<g mask="url(#mask2_3183_1558)">
<path d="M68.4317 194.291L65.8286 196.891L187.904 318.82L190.507 316.22L68.4317 194.291Z" fill="#24212C" fill-opacity="0.2"/>
<path d="M53.5562 194.291L50.9531 196.891L173.028 318.82L175.631 316.22L53.5562 194.291Z" fill="#24212C" fill-opacity="0.2"/>
<path d="M38.6788 194.291L36.0757 196.891L158.151 318.82L160.754 316.22L38.6788 194.291Z" fill="#24212C" fill-opacity="0.2"/>
<path d="M23.8031 194.291L21.2 196.891L143.275 318.82L145.878 316.22L23.8031 194.291Z" fill="#24212C" fill-opacity="0.2"/>
<path d="M8.92758 194.291L6.32446 196.891L128.399 318.82L131.003 316.22L8.92758 194.291Z" fill="#24212C" fill-opacity="0.2"/>
<path d="M-5.94986 194.291L-8.55298 196.891L113.522 318.82L116.125 316.22L-5.94986 194.291Z" fill="#24212C" fill-opacity="0.2"/>
<path d="M-20.8256 194.291L-23.4287 196.891L98.6463 318.82L101.249 316.22L-20.8256 194.291Z" fill="#24212C" fill-opacity="0.2"/>
<path d="M-35.7011 194.291L-38.3042 196.891L83.7708 318.82L86.3739 316.22L-35.7011 194.291Z" fill="#24212C" fill-opacity="0.2"/>
<path d="M-50.5785 194.291L-53.1816 196.891L68.8934 318.82L71.4965 316.22L-50.5785 194.291Z" fill="#24212C" fill-opacity="0.2"/>
<path d="M-65.4543 194.291L-68.0574 196.891L54.0176 318.82L56.6207 316.22L-65.4543 194.291Z" fill="#24212C" fill-opacity="0.2"/>
<path d="M-80.3317 194.291L-82.9348 196.891L39.1402 318.82L41.7433 316.22L-80.3317 194.291Z" fill="#24212C" fill-opacity="0.2"/>
<path d="M-95.2072 194.291L-97.8103 196.891L24.2647 318.82L26.8678 316.22L-95.2072 194.291Z" fill="#24212C" fill-opacity="0.2"/>
<path d="M-110.083 194.291L-112.686 196.891L9.38897 318.82L11.9921 316.22L-110.083 194.291Z" fill="#24212C" fill-opacity="0.2"/>
</g>
<path d="M224 464.641L150 464.641L150 538.641L224 538.641L224 464.641Z" fill="#2B262C"/>
<path d="M3 440.859L77 440.859L77 366.859L2.99999 366.859L3 440.859Z" fill="#2B262C"/>
<path d="M224 538.641L150 538.641C150 519.015 157.796 500.192 171.674 486.315C185.552 472.437 204.374 464.641 224 464.641L224 538.641Z" fill="#24212C" fill-opacity="0.2"/>
<path d="M3 366.859L77 366.859C77 386.485 69.2036 405.308 55.3259 419.185C41.4482 433.063 22.626 440.859 3.00001 440.859L3 366.859Z" fill="#24212C" fill-opacity="0.2"/>
<path d="M150 759.641L77 759.641L77 832.641L150 832.641L150 759.641Z" fill="#CFDEFE"/>
<path d="M77 145.859L150 145.859L150 72.8594L77 72.8594L77 145.859Z" fill="#CFDEFE"/>
<path d="M150 832.641L77 832.641L77 906.641L150 906.641L150 832.641Z" fill="#24212C" fill-opacity="0.2"/>
<path d="M77 72.8594L150 72.8594L150 -1.14062L77 -1.14061L77 72.8594Z" fill="#24212C" fill-opacity="0.2"/>
<path d="M77 759.641L150 759.641L150 685.641L77 685.641L77 759.641Z" fill="#24212C" fill-opacity="0.2"/>
<path d="M150 145.859L77 145.859L77 219.859L150 219.859L150 145.859Z" fill="#24212C" fill-opacity="0.2"/>
<path d="M77 611.641L150 611.641L150 538.641L77 538.641L77 611.641Z" fill="#CFDEFE"/>
<path d="M150 293.859L77 293.859L77 366.859L150 366.859L150 293.859Z" fill="#CFDEFE"/>
<path d="M77 611.641L77 538.641L150 538.641C150 558.001 142.309 576.569 128.619 590.259C114.929 603.95 96.3608 611.641 77 611.641Z" fill="#24212C" fill-opacity="0.2"/>
<path d="M150 293.859L150 366.859L77 366.859C77 347.499 84.691 328.931 98.3812 315.241C112.071 301.55 130.639 293.859 150 293.859Z" fill="#24212C" fill-opacity="0.2"/>
<path d="M77 538.641L150 538.641L150 464.641L77 464.641L77 538.641Z" fill="#24212C" fill-opacity="0.2"/>
<path d="M150 366.859L77 366.859L77 440.859L150 440.859L150 366.859Z" fill="#24212C" fill-opacity="0.2"/>
<mask id="mask3_3183_1558" style="mask-type:luminance" maskUnits="userSpaceOnUse" x="2" y="685" width="75" height="238">
<path d="M76.5176 922.5L76.5176 833.116L76.5176 759.445L76.5176 685.775L2.75884 685.775L2.75884 759.445L2.75885 833.116L2.75886 922.5L76.5176 922.5Z" fill="white"/>
</mask>
<g mask="url(#mask3_3183_1558)">
<path d="M306.905 925.092L309.508 922.492L68.5188 681.791L65.9156 684.391L306.905 925.092Z" fill="white" fill-opacity="0.2"/>
<path d="M292.029 925.092L294.632 922.492L53.6433 681.791L51.0402 684.391L292.029 925.092Z" fill="white" fill-opacity="0.2"/>
<path d="M277.152 925.092L279.755 922.492L38.7658 681.791L36.1627 684.391L277.152 925.092Z" fill="white" fill-opacity="0.2"/>
<path d="M262.276 925.092L264.879 922.492L23.8901 681.791L21.287 684.391L262.276 925.092Z" fill="white" fill-opacity="0.2"/>
<path d="M247.401 925.092L250.004 922.492L9.01461 681.791L6.41149 684.391L247.401 925.092Z" fill="white" fill-opacity="0.2"/>
<path d="M232.523 925.092L235.126 922.492L-5.86284 681.791L-8.46595 684.391L232.523 925.092Z" fill="white" fill-opacity="0.2"/>
<path d="M217.647 925.092L220.25 922.492L-20.7386 681.791L-23.3417 684.391L217.647 925.092Z" fill="white" fill-opacity="0.2"/>
<path d="M202.772 925.092L205.375 922.492L-35.6141 681.791L-38.2172 684.391L202.772 925.092Z" fill="white" fill-opacity="0.2"/>
<path d="M187.894 925.092L190.498 922.492L-50.4915 681.791L-53.0946 684.391L187.894 925.092Z" fill="white" fill-opacity="0.2"/>
<path d="M173.019 925.092L175.622 922.492L-65.3672 681.791L-67.9703 684.391L173.019 925.092Z" fill="white" fill-opacity="0.2"/>
<path d="M158.143 925.092L160.746 922.492L-80.2427 681.791L-82.8458 684.391L158.143 925.092Z" fill="white" fill-opacity="0.2"/>
<path d="M143.266 925.092L145.869 922.492L-95.1202 681.791L-97.7233 684.391L143.266 925.092Z" fill="white" fill-opacity="0.2"/>
<path d="M128.39 925.092L130.993 922.492L-109.996 681.791L-112.599 684.391L128.39 925.092Z" fill="white" fill-opacity="0.2"/>
<path d="M113.515 925.092L116.118 922.492L-124.871 681.791L-127.474 684.391L113.515 925.092Z" fill="white" fill-opacity="0.2"/>
<path d="M98.6371 925.092L101.24 922.492L-139.749 681.791L-142.352 684.391L98.6371 925.092Z" fill="white" fill-opacity="0.2"/>
<path d="M83.7614 925.092L86.3645 922.492L-154.625 681.791L-157.228 684.391L83.7614 925.092Z" fill="white" fill-opacity="0.2"/>
<path d="M68.8859 925.092L71.489 922.492L-169.5 681.791L-172.103 684.391L68.8859 925.092Z" fill="white" fill-opacity="0.2"/>
<path d="M54.0085 925.092L56.6116 922.492L-184.377 681.791L-186.981 684.391L54.0085 925.092Z" fill="white" fill-opacity="0.2"/>
<path d="M39.1327 925.092L41.7358 922.492L-199.253 681.791L-201.856 684.391L39.1327 925.092Z" fill="white" fill-opacity="0.2"/>
<path d="M24.2553 925.092L26.8584 922.492L-214.131 681.791L-216.734 684.391L24.2553 925.092Z" fill="#24212C" fill-opacity="0.2"/>
<path d="M9.37979 925.092L11.9829 922.492L-229.006 681.791L-231.609 684.391L9.37979 925.092Z" fill="#24212C" fill-opacity="0.2"/>
</g>
<mask id="mask4_3183_1558" style="mask-type:luminance" maskUnits="userSpaceOnUse" x="150" y="-17" width="75" height="237">
<path d="M150.482 -17L150.482 72.3843L150.482 146.055L150.482 219.725L224.241 219.725L224.241 146.055L224.241 72.3843L224.241 -17L150.482 -17Z" fill="white"/>
</mask>
<g mask="url(#mask4_3183_1558)">
<path d="M-79.9047 -19.5922L-82.5078 -16.9922L158.481 223.709L161.084 221.109L-79.9047 -19.5922Z" fill="#24212C" fill-opacity="0.2"/>
<path d="M-65.0292 -19.5922L-67.6323 -16.9922L173.357 223.709L175.96 221.109L-65.0292 -19.5922Z" fill="#24212C" fill-opacity="0.2"/>
<path d="M-50.1518 -19.5922L-52.7549 -16.9922L188.234 223.709L190.837 221.109L-50.1518 -19.5922Z" fill="#24212C" fill-opacity="0.2"/>
<path d="M-35.276 -19.5922L-37.8792 -16.9922L203.11 223.709L205.713 221.109L-35.276 -19.5922Z" fill="#24212C" fill-opacity="0.2"/>
<path d="M-20.4005 -19.5922L-23.0037 -16.9922L217.985 223.709L220.589 221.109L-20.4005 -19.5922Z" fill="#24212C" fill-opacity="0.2"/>
<path d="M-5.52311 -19.5922L-8.12622 -16.9922L232.863 223.709L235.466 221.109L-5.52311 -19.5922Z" fill="#24212C" fill-opacity="0.2"/>
<path d="M9.35263 -19.5922L6.74951 -16.9922L247.739 223.709L250.342 221.109L9.35263 -19.5922Z" fill="#24212C" fill-opacity="0.2"/>
<path d="M24.2281 -19.5922L21.625 -16.9922L262.614 223.709L265.217 221.109L24.2281 -19.5922Z" fill="#24212C" fill-opacity="0.2"/>
<path d="M39.1056 -19.5922L36.5024 -16.9922L277.492 223.709L280.095 221.109L39.1056 -19.5922Z" fill="#24212C" fill-opacity="0.2"/>
<path d="M53.9813 -19.5922L51.3782 -16.9922L292.367 223.709L294.97 221.109L53.9813 -19.5922Z" fill="#24212C" fill-opacity="0.2"/>
<path d="M68.8568 -19.5922L66.2537 -16.9922L307.243 223.709L309.846 221.109L68.8568 -19.5922Z" fill="#24212C" fill-opacity="0.2"/>
<path d="M83.7342 -19.5922L81.1311 -16.9922L322.12 223.709L324.723 221.109L83.7342 -19.5922Z" fill="#24212C" fill-opacity="0.2"/>
<path d="M98.61 -19.5922L96.0068 -16.9922L336.996 223.709L339.599 221.109L98.61 -19.5922Z" fill="#24212C" fill-opacity="0.2"/>
<path d="M113.485 -19.5922L110.882 -16.9922L351.871 223.709L354.475 221.109L113.485 -19.5922Z" fill="#24212C" fill-opacity="0.2"/>
<path d="M128.363 -19.5922L125.76 -16.9922L366.749 223.709L369.352 221.109L128.363 -19.5922Z" fill="#24212C" fill-opacity="0.2"/>
<path d="M143.239 -19.5922L140.635 -16.9922L381.625 223.709L384.228 221.109L143.239 -19.5922Z" fill="#24212C" fill-opacity="0.2"/>
<path d="M158.114 -19.5922L155.511 -16.9922L396.5 223.709L399.103 221.109L158.114 -19.5922Z" fill="#24212C" fill-opacity="0.2"/>
<path d="M172.992 -19.5922L170.388 -16.9922L411.378 223.709L413.981 221.109L172.992 -19.5922Z" fill="#24212C" fill-opacity="0.2"/>
<path d="M187.867 -19.5922L185.264 -16.9922L426.253 223.709L428.856 221.109L187.867 -19.5922Z" fill="#24212C" fill-opacity="0.2"/>
<path d="M202.745 -19.5922L200.142 -16.9922L441.131 223.709L443.734 221.109L202.745 -19.5922Z" fill="#24212C" fill-opacity="0.2"/>
<path d="M217.62 -19.5922L215.017 -16.9922L456.006 223.709L458.609 221.109L217.62 -19.5922Z" fill="#24212C" fill-opacity="0.2"/>
</g>
<path d="M3 685.641L77 685.641L77 611.641L2.99999 611.641L3 685.641Z" fill="#24212C" fill-opacity="0.2"/>
<path d="M224 219.859L150 219.859L150 293.859L224 293.859L224 219.859Z" fill="#24212C" fill-opacity="0.2"/>
<mask id="mask5_3183_1558" style="mask-type:luminance" maskUnits="userSpaceOnUse" x="2" y="441" width="75" height="172">
<path d="M76.5176 612.109L76.5176 538.439L76.5176 441.005L2.75884 441.005L2.75885 538.439L2.75886 612.109L76.5176 612.109Z" fill="white"/>
</mask>
<g mask="url(#mask5_3183_1558)">
<path d="M276.749 635.303L279.352 632.703L64.5559 418.164L61.9528 420.764L276.749 635.303Z" fill="#CFDEFE"/>
<path d="M261.873 635.303L264.476 632.703L49.6802 418.164L47.0771 420.764L261.873 635.303Z" fill="#CFDEFE"/>
<path d="M246.998 635.303L249.601 632.703L34.8047 418.164L32.2016 420.764L246.998 635.303Z" fill="#CFDEFE"/>
<path d="M232.12 635.303L234.723 632.703L19.9273 418.164L17.3242 420.764L232.12 635.303Z" fill="#CFDEFE"/>
<path d="M217.245 635.303L219.848 632.703L5.05154 418.164L2.44842 420.764L217.245 635.303Z" fill="#CFDEFE"/>
<path d="M202.367 635.303L204.97 632.703L-9.82591 418.164L-12.429 420.764L202.367 635.303Z" fill="#CFDEFE"/>
<path d="M187.492 635.303L190.095 632.703L-24.7014 418.164L-27.3045 420.764L187.492 635.303Z" fill="#CFDEFE"/>
<path d="M172.616 635.303L175.219 632.703L-39.5771 418.164L-42.1802 420.764L172.616 635.303Z" fill="#CFDEFE"/>
<path d="M157.738 635.303L160.342 632.703L-54.4546 418.164L-57.0577 420.764L157.738 635.303Z" fill="#CFDEFE"/>
<path d="M142.863 635.303L145.466 632.703L-69.3301 418.164L-71.9332 420.764L142.863 635.303Z" fill="#CFDEFE"/>
<path d="M127.987 635.303L130.59 632.703L-84.2058 418.164L-86.8089 420.764L127.987 635.303Z" fill="#CFDEFE"/>
<path d="M113.11 635.303L115.713 632.703L-99.0832 418.164L-101.686 420.764L113.11 635.303Z" fill="#CFDEFE"/>
<path d="M98.2343 635.303L100.837 632.703L-113.959 418.164L-116.562 420.764L98.2343 635.303Z" fill="#CFDEFE"/>
<path d="M83.3586 635.303L85.9617 632.703L-128.834 418.164L-131.438 420.764L83.3586 635.303Z" fill="#CFDEFE"/>
<path d="M68.4811 635.303L71.0842 632.703L-143.712 418.164L-146.315 420.764L68.4811 635.303Z" fill="#CFDEFE"/>
<path d="M53.6056 635.303L56.2087 632.703L-158.587 418.164L-161.19 420.764L53.6056 635.303Z" fill="#CFDEFE"/>
<path d="M38.7299 635.303L41.333 632.703L-173.463 418.164L-176.066 420.764L38.7299 635.303Z" fill="#CFDEFE"/>
<path d="M23.8525 635.303L26.4556 632.703L-188.341 418.164L-190.944 420.764L23.8525 635.303Z" fill="#CFDEFE"/>
<path d="M8.97696 635.303L11.5801 632.703L-203.216 418.164L-205.819 420.764L8.97696 635.303Z" fill="#CFDEFE"/>
</g>
<mask id="mask6_3183_1558" style="mask-type:luminance" maskUnits="userSpaceOnUse" x="150" y="293" width="75" height="172">
<path d="M150.483 293.391L150.483 367.061L150.483 464.495L224.241 464.495L224.241 367.061L224.241 293.391L150.483 293.391Z" fill="white"/>
</mask>
<g mask="url(#mask6_3183_1558)">
<path d="M-49.7487 270.197L-52.3518 272.797L162.444 487.336L165.047 484.736L-49.7487 270.197Z" fill="#CFDEFE"/>
<path d="M-34.873 270.197L-37.4761 272.797L177.32 487.336L179.923 484.736L-34.873 270.197Z" fill="#CFDEFE"/>
<path d="M-19.9975 270.197L-22.6006 272.797L192.196 487.336L194.799 484.736L-19.9975 270.197Z" fill="#CFDEFE"/>
<path d="M-5.12003 270.197L-7.72314 272.797L207.073 487.336L209.676 484.736L-5.12003 270.197Z" fill="#CFDEFE"/>
<path d="M9.7557 270.197L7.15259 272.797L221.949 487.336L224.552 484.736L9.7557 270.197Z" fill="#CFDEFE"/>
<path d="M24.6331 270.197L22.03 272.797L236.826 487.336L239.429 484.736L24.6331 270.197Z" fill="#CFDEFE"/>
<path d="M39.5086 270.197L36.9055 272.797L251.702 487.336L254.305 484.736L39.5086 270.197Z" fill="#CFDEFE"/>
<path d="M54.3844 270.197L51.7812 272.797L266.577 487.336L269.181 484.736L54.3844 270.197Z" fill="#CFDEFE"/>
<path d="M69.2618 270.197L66.6587 272.797L281.455 487.336L284.058 484.736L69.2618 270.197Z" fill="#CFDEFE"/>
<path d="M84.1373 270.197L81.5342 272.797L296.33 487.336L298.933 484.736L84.1373 270.197Z" fill="#CFDEFE"/>
<path d="M99.013 270.197L96.4099 272.797L311.206 487.336L313.809 484.736L99.013 270.197Z" fill="#CFDEFE"/>
<path d="M113.89 270.197L111.287 272.797L326.083 487.336L328.687 484.736L113.89 270.197Z" fill="#CFDEFE"/>
<path d="M128.766 270.197L126.163 272.797L340.959 487.336L343.562 484.736L128.766 270.197Z" fill="#CFDEFE"/>
<path d="M143.642 270.197L141.039 272.797L355.835 487.336L358.438 484.736L143.642 270.197Z" fill="#CFDEFE"/>
<path d="M158.519 270.197L155.916 272.797L370.712 487.336L373.315 484.736L158.519 270.197Z" fill="#CFDEFE"/>
<path d="M173.395 270.197L170.792 272.797L385.588 487.336L388.191 484.736L173.395 270.197Z" fill="#CFDEFE"/>
<path d="M188.27 270.197L185.667 272.797L400.463 487.336L403.066 484.736L188.27 270.197Z" fill="#CFDEFE"/>
<path d="M203.148 270.197L200.545 272.797L415.341 487.336L417.944 484.736L203.148 270.197Z" fill="#CFDEFE"/>
<path d="M218.023 270.197L215.42 272.797L430.216 487.336L432.819 484.736L218.023 270.197Z" fill="#CFDEFE"/>
</g>
<path d="M298 -1.14064L224 -1.14062L224 72.8594L298 72.8594L298 -1.14064Z" fill="#24212C" fill-opacity="0.2"/>
<path d="M298 219.859C298 239.485 290.204 258.308 276.326 272.185C262.448 286.063 243.626 293.859 224 293.859L224 219.859L298 219.859Z" fill="#CFDEFE"/>
<path d="M298 293.859L224 293.859L224 366.859L298 366.859L298 293.859Z" fill="#CFDEFE"/>
<path d="M224 403.859L224 329.859L298 366.859L224 403.859Z" fill="#59A0A0"/>
<path d="M298 366.859L224 366.859L224 440.859L298 440.859L298 366.859Z" fill="#24212C" fill-opacity="0.2"/>
<path d="M298 -1.14064L224 -1.14062L224 72.8594L298 72.8594L298 -1.14064Z" fill="#CFDEFE"/>
<path d="M298 -1.14064L298 72.8594L224 72.8594C224 53.2334 231.796 34.4112 245.674 20.5335C259.552 6.65577 278.374 -1.14063 298 -1.14064Z" fill="#24212C" fill-opacity="0.2"/>
</g>
<defs>
<filter id="filter0_d_3183_1558" x="0" y="-2" width="538.478" height="842" filterUnits="userSpaceOnUse" color-interpolation-filters="sRGB">
<feFlood flood-opacity="0" result="BackgroundImageFix"/>
<feColorMatrix in="SourceAlpha" type="matrix" values="0 0 0 0 0 0 0 0 0 0 0 0 0 0 0 0 0 0 127 0" result="hardAlpha"/>
<feOffset dy="2"/>
<feGaussianBlur stdDeviation="2"/>
<feComposite in2="hardAlpha" operator="out"/>
<feColorMatrix type="matrix" values="0 0 0 0 0 0 0 0 0 0 0 0 0 0 0 0 0 0 0.05 0"/>
<feBlend mode="normal" in2="BackgroundImageFix" result="effect1_dropShadow_3183_1558"/>
<feBlend mode="normal" in="SourceGraphic" in2="effect1_dropShadow_3183_1558" result="shape"/>
</filter>
<clipPath id="clip0_3183_1558">
<rect width="1203.01" height="874" fill="white" transform="translate(5.98682 -27)"/>
</clipPath>
</defs>
</svg>
