<svg width="103" height="26" viewBox="0 0 103 26" fill="none" xmlns="http://www.w3.org/2000/svg">
    <path d="M35.68 14.6926H39.34C40.7 14.6926 41.52 14.2126 41.52 13.1726V13.1326C41.52 12.1926 40.84 11.6126 39.24 11.6126H35.68V14.6926ZM35.68 9.05258H38.52C39.88 9.05258 40.74 8.61258 40.74 7.57258V7.53258C40.74 6.59258 40.02 6.09258 38.72 6.09258H35.68V9.05258ZM32.68 17.3926V3.39258H39.18C40.8 3.39258 42.02 3.81258 42.84 4.63258C43.48 5.27258 43.8 6.07258 43.8 7.01258V7.05258C43.8 8.61258 42.96 9.55258 41.96 10.0726C43.58 10.6926 44.58 11.6526 44.58 13.5126V13.5526C44.58 16.1126 42.5 17.3926 39.34 17.3926H32.68ZM48.9536 20.6526C47.8336 20.6526 47.0336 20.3726 46.2536 19.9126L47.2736 17.7126C47.6736 17.9526 48.1736 18.1326 48.5736 18.1326C49.1136 18.1326 49.3736 17.9726 49.6336 17.4326L45.4336 6.67258H48.6536L51.0936 13.9726L53.4336 6.67258H56.5936L52.4736 17.6526C51.6736 19.8326 50.7536 20.6526 48.9536 20.6526ZM57.9858 17.3926V6.67258H61.0258V8.19258C61.7258 7.29258 62.6458 6.47258 64.1658 6.47258C66.4858 6.47258 67.8058 7.97258 67.8058 10.4526V17.3926H64.7658V11.4126C64.7658 9.97258 64.1058 9.23258 62.9258 9.23258C61.7458 9.23258 61.0258 9.97258 61.0258 11.4126V17.3926H57.9858ZM74.0067 15.4926C75.4467 15.4926 76.3867 14.7326 76.3867 13.6126V13.0726C75.8467 12.8326 75.1867 12.6726 74.4467 12.6726C73.1467 12.6726 72.3467 13.1926 72.3467 14.1526V14.1926C72.3467 15.0126 73.0267 15.4926 74.0067 15.4926ZM73.0867 17.5926C71.0667 17.5926 69.4067 16.4526 69.4067 14.3126V14.2726C69.4067 11.9526 71.1867 10.8526 73.7267 10.8526C74.8267 10.8526 75.5667 11.0326 76.3467 11.2926V11.1126C76.3467 9.83258 75.5667 9.15258 74.0467 9.15258C72.8667 9.15258 72.0667 9.35258 71.0867 9.73258L70.3267 7.41258C71.5067 6.91258 72.6667 6.55258 74.4867 6.55258C76.1667 6.55258 77.3267 6.97258 78.1067 7.75258C78.9067 8.55258 79.2667 9.73258 79.2667 11.1726V17.3926H76.3267V16.2326C75.5867 17.0526 74.5867 17.5926 73.0867 17.5926ZM85.0427 17.5926C82.7227 17.5926 81.4027 16.0926 81.4027 13.6126V6.67258H84.4427V12.6526C84.4427 14.0926 85.1027 14.8326 86.2827 14.8326C87.4627 14.8326 88.1827 14.0926 88.1827 12.6526V6.67258H91.2227V17.3926H88.1827V15.8726C87.4827 16.7726 86.5627 17.5926 85.0427 17.5926ZM97.3036 17.5926C95.7836 17.5926 94.1436 17.0926 92.7036 15.9726L94.0036 13.9726C95.1836 14.8326 96.3636 15.2526 97.3836 15.2526C98.2636 15.2526 98.6636 14.9326 98.6636 14.4526V14.4126C98.6636 13.7526 97.6236 13.5526 96.4436 13.1726C94.9436 12.7526 93.2436 12.0326 93.2436 9.95258V9.91258C93.2436 7.73258 95.0036 6.51258 97.1636 6.51258C98.5236 6.51258 99.9836 6.97258 101.164 7.75258L100.004 9.85258C98.9436 9.23258 97.8836 8.85258 97.1036 8.85258C96.3636 8.85258 95.9836 9.17258 95.9836 9.59258V9.63258C95.9836 10.1926 97.0036 10.5526 98.1636 10.9126C99.6636 11.3926 101.404 12.1326 101.404 14.0926V14.1326C101.404 16.5126 99.6236 17.5926 97.3036 17.5926Z" fill="white"/>
    <g opacity="0.7" clip-path="url(#clip0_1212_2003)">
    <mask id="mask0_1212_2003" style="mask-type:luminance" maskUnits="userSpaceOnUse" x="0" y="0" width="25" height="26">
    <path d="M25 0.392578H0V25.3926H25V0.392578Z" fill="white"/>
    </mask>
    <g mask="url(#mask0_1212_2003)">
    <path fill-rule="evenodd" clip-rule="evenodd" d="M6.25 0.392578H25V6.64258V19.1426L18.75 25.3926V6.64258H0L6.25 0.392578ZM0 21.026V12.8926H8.13338L0 21.026ZM12.5 25.3926H4.47221L12.5 17.3648V25.3926Z" fill="url(#paint0_linear_1212_2003)"/>
    </g>
    </g>
    <defs>
    <linearGradient id="paint0_linear_1212_2003" x1="22.125" y1="0.392577" x2="4.9375" y2="19.4551" gradientUnits="userSpaceOnUse">
    <stop stop-color="#8889B3"/>
    <stop offset="1" stop-color="#E6E7F3"/>
    </linearGradient>
    <clipPath id="clip0_1212_2003">
    <rect width="25" height="25" fill="white" transform="translate(0 0.392578)"/>
    </clipPath>
    </defs>
    </svg>
    