<svg width="16" height="16" viewBox="0 0 16 16" fill="none" xmlns="http://www.w3.org/2000/svg">
    <path
        d="M14.7368 3.6H6.73684C6.62305 3.59974 6.51401 3.55658 6.43368 3.48L5.30526 2.4C5.18979 2.27864 5.04972 2.18065 4.89345 2.11192C4.73718 2.04319 4.56791 2.00513 4.39579 2H1.50737C1.10759 2 0.724184 2.15087 0.441498 2.41942C0.158812 2.68797 0 3.05221 0 3.432V12.568C0 12.9478 0.158812 13.312 0.441498 13.5806C0.724184 13.8491 1.10759 14 1.50737 14H14.4926C14.8924 14 15.2758 13.8491 15.5585 13.5806C15.8412 13.312 16 12.9478 16 12.568V4.8C16 4.48174 15.8669 4.17652 15.63 3.95147C15.3931 3.72643 15.0719 3.6 14.7368 3.6Z"
        fill="#A5A2A5" />
</svg>
    