<svg width="16" height="16" viewBox="0 0 16 16" fill="none" xmlns="http://www.w3.org/2000/svg">
    <g clip-path="url(#clip0_25_153)">
        <path
            d="M2.66671 16H13.3334C13.687 16 14.0261 15.8595 14.2762 15.6095C14.5262 15.3594 14.6667 15.0203 14.6667 14.6667V4.22C14.6668 4.04406 14.6322 3.86983 14.5647 3.70736C14.4971 3.54488 14.3982 3.39737 14.2734 3.27333L11.3934 0.393334C11.2693 0.268555 11.1218 0.169559 10.9594 0.102052C10.7969 0.0345444 10.6226 -0.000138994 10.4467 4.18621e-07H2.66671C2.31309 4.18621e-07 1.97395 0.140476 1.7239 0.390525C1.47385 0.640573 1.33337 0.979712 1.33337 1.33333V14.6667C1.33337 15.0203 1.47385 15.3594 1.7239 15.6095C1.97395 15.8595 2.31309 16 2.66671 16ZM9.33337 8C9.33337 7.9116 9.36849 7.82681 9.431 7.7643C9.49352 7.70179 9.5783 7.66667 9.66671 7.66667H10.3334C10.4218 7.66667 10.5066 7.70179 10.5691 7.7643C10.6316 7.82681 10.6667 7.9116 10.6667 8V11.3333C10.6667 11.4217 10.6316 11.5065 10.5691 11.569C10.5066 11.6315 10.4218 11.6667 10.3334 11.6667H9.66671C9.5783 11.6667 9.49352 11.6315 9.431 11.569C9.36849 11.5065 9.33337 11.4217 9.33337 11.3333V8ZM7.00004 6.66667C7.00004 6.57826 7.03516 6.49348 7.09767 6.43096C7.16018 6.36845 7.24497 6.33333 7.33337 6.33333H8.00004C8.08845 6.33333 8.17323 6.36845 8.23574 6.43096C8.29825 6.49348 8.33337 6.57826 8.33337 6.66667V11.3333C8.33337 11.4217 8.29825 11.5065 8.23574 11.569C8.17323 11.6315 8.08845 11.6667 8.00004 11.6667H7.33337C7.24497 11.6667 7.16018 11.6315 7.09767 11.569C7.03516 11.5065 7.00004 11.4217 7.00004 11.3333V6.66667ZM4.66671 9.66667C4.66671 9.57826 4.70183 9.49348 4.76434 9.43097C4.82685 9.36845 4.91163 9.33333 5.00004 9.33333H5.66671C5.75511 9.33333 5.8399 9.36845 5.90241 9.43097C5.96492 9.49348 6.00004 9.57826 6.00004 9.66667V11.3333C6.00004 11.4217 5.96492 11.5065 5.90241 11.569C5.8399 11.6315 5.75511 11.6667 5.66671 11.6667H5.00004C4.91163 11.6667 4.82685 11.6315 4.76434 11.569C4.70183 11.5065 4.66671 11.4217 4.66671 11.3333V9.66667Z"
            fill="#F0845D" />
    </g>
    <defs>
        <clipPath id="clip0_25_153">
            <rect width="16" height="16" fill="white" />
        </clipPath>
    </defs>
</svg>
    