<svg width="16" height="14" viewBox="0 0 16 14" fill="none" xmlns="http://www.w3.org/2000/svg">
    <path
        d="M9.33337 3.04C9.34208 3.08276 9.35962 3.12323 9.38488 3.15882C9.41014 3.19441 9.44255 3.22433 9.48004 3.24667C10.2304 3.7342 11.1052 3.9957 12 4C12.2076 4.00105 12.415 3.98545 12.62 3.95333C12.6707 3.94685 12.7222 3.95187 12.7707 3.96803C12.8192 3.98419 12.8634 4.01107 12.9 4.04667C12.9381 4.08176 12.9671 4.12558 12.9845 4.17435C13.002 4.22312 13.0073 4.27539 13 4.32667C12.9219 4.7987 12.6772 5.22709 12.3103 5.5341C11.9433 5.84112 11.4784 6.00642 11 6C10.6616 5.99871 10.329 5.91155 10.0334 5.74667C9.98656 5.7198 9.93207 5.7095 9.87868 5.71743C9.8253 5.72535 9.77614 5.75104 9.73915 5.79034C9.70216 5.82964 9.6795 5.88026 9.67482 5.93403C9.67014 5.98779 9.68373 6.04157 9.71337 6.08667C9.88441 6.33246 9.98367 6.621 10 6.92C10.0026 6.99187 10.0288 7.06089 10.0746 7.11634C10.1205 7.17179 10.1833 7.21057 10.2534 7.22667C10.5053 7.29613 10.7654 7.332 11.0267 7.33333C11.5602 7.33454 12.0863 7.20766 12.5606 6.96335C13.0349 6.71904 13.4436 6.36445 13.7525 5.92937C14.0613 5.49428 14.2611 4.99143 14.3353 4.46307C14.4094 3.93471 14.3556 3.39627 14.1784 2.89301C14.0012 2.38976 13.7058 1.93639 13.317 1.571C12.9282 1.20562 12.4574 0.938903 11.9441 0.793264C11.4309 0.647626 10.8901 0.627324 10.3674 0.734063C9.84462 0.840803 9.35513 1.07147 8.94004 1.40667C8.87906 1.45731 8.83769 1.52766 8.82308 1.60557C8.80848 1.68348 8.82155 1.76404 8.86004 1.83333C9.07751 2.20951 9.23708 2.61629 9.33337 3.04Z"
        fill="#A5A2A5" />
    <path
        d="M16 13C16.0029 12.1991 15.8129 11.4093 15.446 10.6974C15.0791 9.98543 14.5461 9.37236 13.8921 8.91C13.2381 8.44765 12.4824 8.14961 11.6889 8.04111C10.8954 7.93261 10.0874 8.01684 9.33332 8.28667C9.28703 8.30408 9.24576 8.33267 9.2132 8.36989C9.18063 8.40711 9.15777 8.45181 9.14665 8.5C9.13623 8.54758 9.13811 8.59704 9.1521 8.6437C9.1661 8.69035 9.19176 8.73268 9.22665 8.76667C9.78735 9.32007 10.2328 9.97915 10.5372 10.7058C10.8415 11.4324 10.9989 12.2122 11 13C11 13.0836 11.0309 13.1643 11.0867 13.2267C11.1164 13.2564 11.1518 13.2799 11.1907 13.2959C11.2296 13.3119 11.2713 13.3201 11.3133 13.32H15.6667C15.7528 13.3201 15.8356 13.2868 15.8978 13.2271C15.9599 13.1675 15.9965 13.0861 16 13Z"
        fill="#A5A2A5" />
    <path
        d="M0 13C0 13.0884 0.035119 13.1732 0.0976311 13.2357C0.160143 13.2982 0.244928 13.3333 0.333333 13.3333H9.66667C9.75507 13.3333 9.83986 13.2982 9.90237 13.2357C9.96488 13.1732 10 13.0884 10 13C10 11.6739 9.47322 10.4021 8.53553 9.46447C7.59785 8.52679 6.32608 8 5 8C3.67392 8 2.40215 8.52679 1.46447 9.46447C0.526784 10.4021 0 11.6739 0 13Z"
        fill="#A5A2A5" />
    <path
        d="M8.66665 7.55333C8.74047 7.50543 8.80408 7.44338 8.8538 7.37077C8.90351 7.29815 8.93837 7.21642 8.95634 7.13027C8.97431 7.04412 8.97505 6.95527 8.95851 6.86884C8.94198 6.7824 8.90849 6.7001 8.85999 6.62667C8.54859 6.10124 8.39578 5.49696 8.41999 4.88667V4.03333C8.41999 3.14044 8.06529 2.28411 7.43391 1.65274C6.80254 1.02137 5.94622 0.666667 5.05332 0.666667C4.16042 0.666667 3.3041 1.02137 2.67273 1.65274C2.04136 2.28411 1.68665 3.14044 1.68665 4.03333V4.88667C1.70885 5.49762 1.55372 6.10194 1.23999 6.62667C1.19227 6.70021 1.15951 6.78243 1.14357 6.86863C1.12763 6.95483 1.12883 7.04333 1.14709 7.12907C1.16535 7.2148 1.20033 7.29611 1.25001 7.36833C1.29969 7.44056 1.36311 7.50229 1.43665 7.55C1.51019 7.59771 1.59241 7.63048 1.67861 7.64642C1.76482 7.66235 1.85331 7.66116 1.93905 7.6429C2.02479 7.62463 2.10609 7.58966 2.17832 7.53998C2.25054 7.4903 2.31227 7.42687 2.35999 7.35333C2.48897 7.14253 2.59619 6.91916 2.67999 6.68667C2.6901 6.66252 2.70555 6.64098 2.72518 6.62366C2.74481 6.60634 2.76811 6.5937 2.79332 6.58667C2.81867 6.58034 2.84515 6.58006 2.87063 6.58585C2.89611 6.59164 2.91986 6.60334 2.93999 6.62C3.53489 7.10515 4.27901 7.37011 5.04665 7.37011C5.8143 7.37011 6.55842 7.10515 7.15332 6.62C7.17355 6.60347 7.19738 6.59193 7.22289 6.58631C7.24839 6.58068 7.27487 6.58113 7.30017 6.58762C7.32547 6.59411 7.3489 6.60645 7.36855 6.62366C7.38821 6.64086 7.40354 6.66245 7.41332 6.68667C7.49712 6.91916 7.60434 7.14253 7.73332 7.35333C7.78071 7.42861 7.84268 7.49365 7.91558 7.54461C7.98849 7.59557 8.07086 7.63142 8.15783 7.65006C8.24481 7.6687 8.33463 7.66974 8.42202 7.65313C8.50941 7.63652 8.59258 7.60259 8.66665 7.55333ZM3.05999 4.33333C3.04714 4.25424 3.06381 4.17317 3.10683 4.10557C3.14985 4.03796 3.21622 3.98853 3.29332 3.96667C3.92877 3.76844 4.50266 3.41033 4.95999 2.92667C4.99299 2.89715 5.03571 2.88083 5.07999 2.88083C5.12426 2.88083 5.16699 2.89715 5.19999 2.92667C5.65377 3.40347 6.21995 3.75876 6.84665 3.96C6.92251 3.98318 6.98734 4.03317 7.02905 4.10064C7.07076 4.16811 7.0865 4.24845 7.07332 4.32667C7.07332 4.8571 6.86261 5.36581 6.48753 5.74088C6.11246 6.11595 5.60375 6.32667 5.07332 6.32667C4.54289 6.32667 4.03418 6.11595 3.65911 5.74088C3.28403 5.36581 3.07332 4.8571 3.07332 4.32667L3.05999 4.33333Z"
        fill="#A5A2A5" />
</svg>