<svg width="16" height="16" viewBox="0 0 16 16" fill="none" xmlns="http://www.w3.org/2000/svg">
    <g clip-path="url(#clip0_25_135)">
    <path d="M8.52671 8.29999C8.48037 8.32744 8.43119 8.34979 8.38004 8.36666C8.26298 8.39979 8.14168 8.41552 8.02004 8.41333C7.89785 8.41671 7.77601 8.39866 7.66004 8.35999C7.6061 8.34816 7.55436 8.32791 7.50671 8.29999C7.39115 8.23875 7.2562 8.22523 7.13078 8.26232C7.00537 8.29941 6.89948 8.38416 6.83582 8.4984C6.77216 8.61265 6.75579 8.74728 6.79023 8.87345C6.82467 8.99962 6.90717 9.10727 7.02004 9.17333C7.1186 9.23748 7.22362 9.29111 7.33338 9.33333C7.7683 9.4634 8.23178 9.4634 8.66671 9.33333C8.78446 9.29539 8.89831 9.24628 9.00671 9.18666C9.11911 9.12229 9.20169 9.0163 9.23662 8.89157C9.27154 8.76684 9.25601 8.63337 9.19338 8.51999C9.13344 8.4031 9.0299 8.31449 8.90515 8.27332C8.78039 8.23215 8.64445 8.24173 8.52671 8.29999Z" fill="#A5A2A5"/>
    <path d="M7.42 6.77332C7.51204 6.67873 7.56353 6.55196 7.56353 6.41999C7.56353 6.28801 7.51204 6.16124 7.42 6.06665C7.17849 5.86008 6.87114 5.74657 6.55334 5.74657C6.23553 5.74657 5.92818 5.86008 5.68667 6.06665C5.61439 6.1334 5.56341 6.21998 5.54011 6.31556C5.5168 6.41114 5.52222 6.51147 5.55567 6.60399C5.58912 6.69651 5.64912 6.77711 5.72815 6.83569C5.80719 6.89427 5.90175 6.92823 6 6.93332C6.12597 6.93269 6.24718 6.88515 6.34 6.79999C6.39676 6.76722 6.46114 6.74997 6.52667 6.74997C6.5922 6.74997 6.65658 6.76722 6.71334 6.79999C6.81136 6.88854 6.94009 6.93531 7.07209 6.93033C7.20409 6.92535 7.32893 6.86901 7.42 6.77332Z" fill="#A5A2A5"/>
    <path d="M8.60672 6.06665C8.53302 6.13498 8.48161 6.22394 8.45922 6.32192C8.43683 6.4199 8.44449 6.52236 8.48119 6.61592C8.5179 6.70949 8.58195 6.78982 8.66499 6.84644C8.74804 6.90305 8.84621 6.93333 8.94672 6.93332C9.07269 6.93268 9.1939 6.88515 9.28672 6.79998C9.34347 6.76722 9.40785 6.74997 9.47339 6.74997C9.53892 6.74997 9.6033 6.76722 9.66005 6.79998C9.70594 6.85455 9.76296 6.89866 9.8273 6.92938C9.89164 6.96009 9.9618 6.97669 10.0331 6.97807C10.1044 6.97944 10.1751 6.96556 10.2406 6.93735C10.306 6.90914 10.3647 6.86725 10.4127 6.8145C10.4606 6.76175 10.4968 6.69935 10.5186 6.63149C10.5405 6.56364 10.5476 6.49189 10.5394 6.42106C10.5313 6.35024 10.5081 6.28197 10.4714 6.22085C10.4347 6.15972 10.3854 6.10715 10.3267 6.06665C10.0862 5.86361 9.78152 5.75223 9.46672 5.75223C9.15193 5.75223 8.84728 5.86361 8.60672 6.06665Z" fill="#A5A2A5"/>
    <path d="M3.44671 5.71332C3.23319 5.98389 3.12432 6.32234 3.14004 6.66665C3.13665 6.99953 3.22428 7.32701 3.39348 7.6137C3.56267 7.90039 3.80699 8.1354 4.10004 8.29332C4.12508 8.30289 4.14702 8.31913 4.16347 8.34028C4.17993 8.36144 4.19027 8.3867 4.19338 8.41332C4.53338 10.4133 6.86004 11.7467 7.98671 11.7467C9.11338 11.7467 11.44 10.4533 11.78 8.41332C11.782 8.38552 11.7918 8.35884 11.8083 8.33641C11.8248 8.31398 11.8474 8.29672 11.8734 8.28665C12.1654 8.12926 12.4091 7.8953 12.5782 7.60989C12.7473 7.32448 12.8356 6.9984 12.8334 6.66665C12.8507 6.32008 12.7418 5.97898 12.5267 5.70665C12.76 3.99999 12.5267 2.48665 11.6734 1.47332C10.82 0.459987 9.64671 0.0799866 8.00004 0.0799866C6.35338 0.0799866 5.08671 0.55332 4.30004 1.47999C3.51338 2.40665 3.20671 3.99999 3.44671 5.71332ZM11.4467 7.38665C11.2724 7.46628 11.1204 7.58761 11.0041 7.73993C10.8879 7.89225 10.8109 8.07086 10.78 8.25999C10.54 9.75332 8.66671 10.7467 8.00004 10.7467C7.33338 10.7467 5.44671 9.75332 5.19338 8.25999C5.16366 8.07045 5.08713 7.89133 4.97072 7.73883C4.85431 7.58634 4.7017 7.46529 4.52671 7.38665C4.40674 7.30902 4.30836 7.20229 4.24075 7.0764C4.17314 6.9505 4.1385 6.80954 4.14004 6.66665C4.12693 6.60063 4.12693 6.53268 4.14004 6.46665C4.14168 6.45369 4.14801 6.44178 4.15784 6.43318C4.16767 6.42458 4.18031 6.41988 4.19338 6.41999H4.38671C4.65509 6.41927 4.91502 6.32605 5.12268 6.15604C5.33034 5.98602 5.47303 5.74961 5.52671 5.48665L5.65338 4.87332C5.66066 4.8373 5.67964 4.8047 5.70737 4.78058C5.7351 4.75647 5.77003 4.7422 5.80671 4.73999C6.54232 4.7401 7.25896 4.50666 7.85338 4.07332C7.86709 4.05879 7.88362 4.04722 7.90196 4.03931C7.9203 4.0314 7.94007 4.02732 7.96004 4.02732C7.98002 4.02732 7.99978 4.0314 8.01813 4.03931C8.03647 4.04722 8.053 4.05879 8.06671 4.07332C8.66112 4.50666 9.37777 4.7401 10.1134 4.73999C10.1501 4.7422 10.185 4.75647 10.2127 4.78058C10.2404 4.8047 10.2594 4.8373 10.2667 4.87332L10.3867 5.48665C10.4429 5.74959 10.5872 5.98544 10.7957 6.15517C11.0043 6.3249 11.2645 6.41833 11.5334 6.41999H11.64C11.6816 6.42131 11.7213 6.43752 11.7519 6.46567C11.7825 6.49382 11.8019 6.53202 11.8067 6.57332V6.66665C11.8127 6.80593 11.7841 6.94452 11.7237 7.07013C11.6632 7.19573 11.5726 7.30446 11.46 7.38665H11.4467Z" fill="#A5A2A5"/>
    <path d="M11.3333 11.3333L11.1599 11.2867C11.0965 11.2675 11.0287 11.268 10.9656 11.2883C10.9025 11.3085 10.8471 11.3475 10.8066 11.4C10.4069 11.8576 9.90099 12.2101 9.33328 12.4267C9.30322 12.4395 9.27758 12.4608 9.25956 12.4881C9.24154 12.5154 9.23193 12.5473 9.23193 12.58C9.23193 12.6127 9.24154 12.6446 9.25956 12.6719C9.27758 12.6992 9.30322 12.7205 9.33328 12.7333L11.4599 13.4733C11.4869 13.4827 11.5158 13.485 11.5439 13.4801C11.5719 13.4751 11.5983 13.463 11.6204 13.4449C11.6424 13.4269 11.6595 13.4035 11.6699 13.3769C11.6804 13.3504 11.6838 13.3216 11.6799 13.2933L11.3933 11.4533C11.3918 11.4303 11.3857 11.4079 11.3754 11.3873C11.3651 11.3667 11.3508 11.3483 11.3333 11.3333Z" fill="#A5A2A5"/>
    <path d="M5.22672 11.3867C5.18627 11.3342 5.13081 11.2952 5.0677 11.2749C5.0046 11.2547 4.93682 11.2541 4.87338 11.2733L4.70005 11.3333C4.66979 11.3425 4.64261 11.3598 4.62146 11.3833C4.60031 11.4068 4.58599 11.4356 4.58005 11.4667L4.29338 13.3C4.28731 13.3287 4.28925 13.3585 4.29898 13.3862C4.30872 13.4139 4.32589 13.4384 4.3486 13.4569C4.37131 13.4755 4.3987 13.4875 4.42776 13.4916C4.45682 13.4956 4.48645 13.4916 4.51338 13.48L6.62005 12.7333C6.65012 12.7205 6.67575 12.6991 6.69377 12.6719C6.71179 12.6446 6.7214 12.6127 6.7214 12.58C6.7214 12.5473 6.71179 12.5154 6.69377 12.4881C6.67575 12.4608 6.65012 12.4395 6.62005 12.4267C6.07868 12.1972 5.6007 11.8404 5.22672 11.3867Z" fill="#A5A2A5"/>
    <path d="M13.9999 12.1L12.3333 11.62C12.3064 11.6128 12.2782 11.6127 12.2513 11.6197C12.2244 11.6267 12.1998 11.6406 12.1799 11.66C12.1575 11.6764 12.1404 11.6991 12.1309 11.7252C12.1214 11.7513 12.1199 11.7797 12.1266 11.8066L12.4933 14C12.5037 14.0566 12.4987 14.1149 12.4787 14.1689C12.4588 14.2229 12.4247 14.2704 12.3799 14.3066C12.319 14.3542 12.2439 14.38 12.1666 14.38C12.1314 14.387 12.0952 14.387 12.0599 14.38L8.72661 13.2133C8.70378 13.2021 8.6787 13.1963 8.65328 13.1963C8.62786 13.1963 8.60277 13.2021 8.57995 13.2133C8.55718 13.2272 8.53843 13.2469 8.52557 13.2702C8.51271 13.2936 8.50618 13.32 8.50661 13.3467V15.72C8.50658 15.7648 8.52392 15.8079 8.555 15.8403C8.58608 15.8726 8.62847 15.8916 8.67328 15.8933H15.6666C15.755 15.8933 15.8398 15.8582 15.9023 15.7957C15.9648 15.7332 15.9999 15.6484 15.9999 15.56V14.8933C15.9899 14.2796 15.7931 13.6836 15.4358 13.1846C15.0785 12.6855 14.5777 12.3072 13.9999 12.1Z" fill="#A5A2A5"/>
    <path d="M3.94667 14.38H3.83333C3.7562 14.379 3.68142 14.3533 3.62 14.3066C3.57528 14.2704 3.54116 14.2228 3.52121 14.1689C3.50127 14.1149 3.49624 14.0566 3.50667 14L3.84667 11.7933C3.85334 11.7663 3.85183 11.738 3.84233 11.7119C3.83283 11.6857 3.81578 11.663 3.79333 11.6466C3.77026 11.6325 3.74373 11.625 3.71667 11.625C3.6896 11.625 3.66307 11.6325 3.64 11.6466L1.94667 12.1266C1.3784 12.3417 0.888413 12.7235 0.541013 13.222C0.193614 13.7205 0.00502727 14.3124 0 14.92L0 15.5866C0 15.6751 0.035119 15.7598 0.0976311 15.8224C0.160143 15.8849 0.244928 15.92 0.333333 15.92H7.33333C7.37814 15.9183 7.42053 15.8992 7.45161 15.8669C7.48269 15.8346 7.50003 15.7915 7.5 15.7466V13.3333C7.50044 13.3066 7.4939 13.2803 7.48104 13.2569C7.46818 13.2335 7.44944 13.2139 7.42667 13.2C7.40384 13.1888 7.37875 13.183 7.35333 13.183C7.32791 13.183 7.30283 13.1888 7.28 13.2L3.94667 14.38Z" fill="#A5A2A5"/>
    </g>
    <defs>
    <clipPath id="clip0_25_135">
    <rect width="16" height="16" fill="white"/>
    </clipPath>
    </defs>
    </svg>
    