<svg fill="#F0845D" xmlns="http://www.w3.org/2000/svg" height="32" viewBox="0 0 32 32" width="32"><path d="m19 26v2.0025781c0 1.1064965-.8942762 1.9974219-1.9974219 1.9974219h-15.00515619c-1.10649652 0-1.99742191-.8987122-1.99742191-2.0073299v-22.98534016c0-1.10899162.8992496-2.00732994 2.0085302-2.00732994h9.9914698v6.00189865c0 1.11139495.8980806 1.99810135 2.0059191 1.99810135h4.9940809v2h-12.99315166c-1.66063649 0-3.00684834 1.3422643-3.00684834 2.9987856v7.0024288c0 1.6561835 1.33599155 2.9987856 3.00684834 2.9987856zm-6-23v5.99707067c0 .55390257.4509752 1.00292933.990778 1.00292933h5.009222zm-6.99267006 11c-1.10861771 0-2.00732994.9001762-2.00732994 1.992017v7.015966c0 1.1001606.89833832 1.992017 2.00732994 1.992017h22.98534016c1.1086177 0 2.0073299-.9001762 2.0073299-1.992017v-7.015966c0-1.1001606-.8983383-1.992017-2.0073299-1.992017zm1.99267006 5.5-2-3.5h1l1.5 2.625 1.5-2.625h1l-2 3.5 2 3.5h-1l-1.5-2.625-1.5 2.625h-1zm9 2.5v1h-5v-7h1v6zm3.0048815-6c-1.1072655 0-2.0048815.8877296-2.0048815 2 0 1.1045695.8877296 2 2 2h.9906311c.5574591 0 1.0093689.4438648 1.0093689 1 0 .5522847-.4426603 1-.9989566 1h-1.0020868c-.5517085 0-.9989566-.456284-.9989566-.9955287v-.0113072h-1v.0057569c0 1.1051654.8938998 2.001079 2.0048815 2.001079h.990237c1.1072655 0 2.0048815-.8877296 2.0048815-2 0-1.1045695-.8877296-2-2-2h-.9906311c-.5574591 0-1.0093689-.4438648-1.0093689-1 0-.5522847.4426603-1 .9989566-1h1.0020868c.5517085 0 .9989566.453186.9989566 1h1c0-1.1045695-.8938998-2-2.0048815-2zm5.9951185 3.5-2-3.5h1l1.5 2.625 1.5-2.625h1l-2 3.5 2 3.5h-1l-1.5-2.625-1.5 2.625h-1z" fill-rule="evenodd"/></svg>