<svg width="64" height="64" viewBox="0 0 64 64" fill="none" xmlns="http://www.w3.org/2000/svg">
<path d="M13.2476 50.745V31.995" stroke="#F0845D" stroke-linecap="round" stroke-linejoin="round"/>
<path d="M13.25 32H15.125C16.6168 32 18.0476 32.5926 19.1025 33.6475C20.1574 34.7024 20.75 36.1332 20.75 37.625C20.75 39.1168 20.1574 40.5476 19.1025 41.6025C18.0476 42.6574 16.6168 43.25 15.125 43.25H13.25" stroke="#F0845D" stroke-linecap="round" stroke-linejoin="round"/>
<path d="M28.25 50.75C30.2391 50.75 32.1468 49.9598 33.5533 48.5533C34.9598 47.1468 35.75 45.2391 35.75 43.25V39.5C35.75 37.5109 34.9598 35.6032 33.5533 34.1967C32.1468 32.7902 30.2391 32 28.25 32V50.75Z" stroke="#F0845D" stroke-linecap="round" stroke-linejoin="round"/>
<path d="M43.25 50.75V35.75C43.25 34.7554 43.6451 33.8016 44.3484 33.0983C45.0516 32.3951 46.0054 32 47 32H50.75" stroke="#F0845D" stroke-linecap="round" stroke-linejoin="round"/>
<path d="M43.2476 43.245H48.8726" stroke="#F0845D" stroke-linecap="round" stroke-linejoin="round"/>
<path d="M59.0226 15.8975C59.726 16.6001 60.1217 17.5533 60.1226 18.5475V54.5C60.1212 55.9905 59.5284 57.4196 58.4742 58.4734C57.4199 59.5271 55.9906 60.1193 54.5001 60.12H9.50006C8.00865 60.1207 6.57803 59.529 5.52274 58.4751C4.46745 57.4212 3.87389 55.9914 3.87256 54.5V9.5C3.8719 8.76068 4.017 8.02849 4.29954 7.34529C4.58209 6.66209 4.99654 6.04129 5.5192 5.5184C6.04186 4.99551 6.66247 4.58078 7.34554 4.29793C8.02861 4.01508 8.76074 3.86967 9.50006 3.87H45.4426C45.9351 3.86977 46.4229 3.96658 46.878 4.15489C47.3331 4.3432 47.7467 4.61933 48.0951 4.9675L59.0226 15.8975Z" stroke="#F0845D" stroke-linecap="round" stroke-linejoin="round"/>
<path d="M45.1226 3.87V15.12C45.1226 16.1146 45.5176 17.0684 46.2209 17.7716C46.9242 18.4749 47.878 18.87 48.8726 18.87H60.1226" stroke="#F0845D" stroke-linecap="round" stroke-linejoin="round"/>
</svg>
