<svg width="32" height="32" viewBox="0 0 32 32" fill="none" xmlns="http://www.w3.org/2000/svg">
<g clip-path="url(#clip0_652_2131)">
<path d="M15.3333 23.3335C15.3333 25.4552 16.1761 27.4901 17.6764 28.9904C19.1767 30.4906 21.2115 31.3335 23.3333 31.3335C25.455 31.3335 27.4898 30.4906 28.9901 28.9904C30.4904 27.4901 31.3333 25.4552 31.3333 23.3335C31.3333 21.2118 30.4904 19.1769 28.9901 17.6766C27.4898 16.1764 25.455 15.3335 23.3333 15.3335C21.2115 15.3335 19.1767 16.1764 17.6764 17.6766C16.1761 19.1769 15.3333 21.2118 15.3333 23.3335Z" stroke="#A5A2A5" stroke-linecap="round" stroke-linejoin="round"/>
<path d="M23.3333 19.3335V27.3335" stroke="#A5A2A5" stroke-linecap="round" stroke-linejoin="round"/>
<path d="M27.3333 23.3335H19.3333" stroke="#A5A2A5" stroke-linecap="round" stroke-linejoin="round"/>
<path d="M11.3334 23.3332H0.666748C0.666683 21.6574 1.11784 20.0124 1.97284 18.5711C2.82785 17.1297 4.05516 15.9452 5.5259 15.1418C6.99664 14.3385 8.65656 13.9459 10.3314 14.0054C12.0061 14.0649 13.634 14.5742 15.0441 15.4799" stroke="#A5A2A5" stroke-linecap="round" stroke-linejoin="round"/>
<path d="M5.11743 3.45605C5.99466 4.36648 7.04656 5.09056 8.21016 5.58496C9.37376 6.07936 10.6252 6.33391 11.8894 6.33339C13.1705 6.33446 14.4382 6.07356 15.6148 5.56672" stroke="#A5A2A5" stroke-linecap="round" stroke-linejoin="round"/>
<path d="M4.33325 6.33317C4.33325 7.83607 4.93027 9.2774 5.99298 10.3401C7.05569 11.4028 8.49703 11.9998 9.99992 11.9998C11.5028 11.9998 12.9442 11.4028 14.0069 10.3401C15.0696 9.2774 15.6666 7.83607 15.6666 6.33317C15.6666 4.83028 15.0696 3.38894 14.0069 2.32623C12.9442 1.26353 11.5028 0.666504 9.99992 0.666504C8.49703 0.666504 7.05569 1.26353 5.99298 2.32623C4.93027 3.38894 4.33325 4.83028 4.33325 6.33317Z" stroke="#A5A2A5" stroke-linecap="round" stroke-linejoin="round"/>
</g>
<defs>
<clipPath id="clip0_652_2131">
<rect width="32" height="32" fill="white"/>
</clipPath>
</defs>
</svg>
