<svg width="42" height="42" viewBox="0 0 42 42" fill="none" xmlns="http://www.w3.org/2000/svg">
<circle cx="21" cy="21" r="21" fill="#B48180"/>
<g clip-path="url(#clip0_652_2190)">
<path d="M31.7751 17.664C31.8899 17.5977 31.9737 17.4885 32.008 17.3604C32.0424 17.2323 32.0244 17.0958 31.9581 16.981L29.9581 13.517C29.8926 13.4029 29.7848 13.3192 29.6581 13.284C29.5301 13.2498 29.3938 13.2678 29.2791 13.334L23.5001 16.669V10C23.5001 9.86739 23.4474 9.74021 23.3536 9.64645C23.2599 9.55268 23.1327 9.5 23.0001 9.5H19.0001C18.8675 9.5 18.7403 9.55268 18.6465 9.64645C18.5528 9.74021 18.5001 9.86739 18.5001 10V16.668L12.7251 13.334C12.6102 13.2677 12.4738 13.2497 12.3457 13.2841C12.2176 13.3184 12.1084 13.4022 12.0421 13.517L10.0421 16.981C9.97578 17.0958 9.95782 17.2323 9.99213 17.3604C10.0265 17.4885 10.1102 17.5977 10.2251 17.664L16.0001 21L10.2251 24.334C10.1102 24.4003 10.0265 24.5095 9.99213 24.6376C9.95782 24.7657 9.97578 24.9022 10.0421 25.017L12.0421 28.481C12.1084 28.5958 12.2176 28.6796 12.3457 28.7139C12.4738 28.7483 12.6102 28.7303 12.7251 28.664L18.5001 25.329V32C18.5001 32.1326 18.5528 32.2598 18.6465 32.3536C18.7403 32.4473 18.8675 32.5 19.0001 32.5H23.0001C23.1327 32.5 23.2599 32.4473 23.3536 32.3536C23.4474 32.2598 23.5001 32.1326 23.5001 32V25.329L29.2761 28.664C29.3908 28.7302 29.5271 28.7482 29.6551 28.714C29.7818 28.6788 29.8896 28.5951 29.9551 28.481L31.9551 25.017C32.0214 24.9022 32.0394 24.7657 32.005 24.6376C31.9707 24.5095 31.8869 24.4003 31.7721 24.334L26.0001 21L31.7751 17.664Z" stroke="white" stroke-linecap="round" stroke-linejoin="round"/>
</g>
<defs>
<clipPath id="clip0_652_2190">
<rect width="24" height="24" fill="white" transform="translate(9 9)"/>
</clipPath>
</defs>
</svg>
