<svg width="24" height="24" viewBox="0 0 24 24" fill="none" xmlns="http://www.w3.org/2000/svg">
<g clip-path="url(#clip0_649_2077)">
<path d="M8.5 20.5H1.5C1.23478 20.5 0.98043 20.3946 0.792893 20.2071C0.605357 20.0196 0.5 19.7652 0.5 19.5V3.5C0.5 3.23478 0.605357 2.98043 0.792893 2.79289C0.98043 2.60536 1.23478 2.5 1.5 2.5H15.5C15.7652 2.5 16.0196 2.60536 16.2071 2.79289C16.3946 2.98043 16.5 3.23478 16.5 3.5V8.5" stroke="white" stroke-linecap="round" stroke-linejoin="round"/>
<path d="M4.5 4.5V0.5" stroke="white" stroke-linecap="round" stroke-linejoin="round"/>
<path d="M8.5 4.5V0.5" stroke="white" stroke-linecap="round" stroke-linejoin="round"/>
<path d="M12.5 4.5V0.5" stroke="white" stroke-linecap="round" stroke-linejoin="round"/>
<path d="M11.5 17.5C11.5 19.0913 12.1321 20.6174 13.2574 21.7426C14.3826 22.8679 15.9087 23.5 17.5 23.5C19.0913 23.5 20.6174 22.8679 21.7426 21.7426C22.8679 20.6174 23.5 19.0913 23.5 17.5C23.5 15.9087 22.8679 14.3826 21.7426 13.2574C20.6174 12.1321 19.0913 11.5 17.5 11.5C15.9087 11.5 14.3826 12.1321 13.2574 13.2574C12.1321 14.3826 11.5 15.9087 11.5 17.5Z" stroke="white" stroke-linecap="round" stroke-linejoin="round"/>
<path d="M19.5 17.5H17.5V14.5" stroke="white" stroke-linecap="round" stroke-linejoin="round"/>
</g>
<defs>
<clipPath id="clip0_649_2077">
<rect width="24" height="24" fill="white"/>
</clipPath>
</defs>
</svg>
