<svg width="24" height="24" viewBox="0 0 24 24" fill="none" xmlns="http://www.w3.org/2000/svg">
<g clip-path="url(#clip0_649_2070)">
<path d="M3.5 22C3.5 22.3978 3.65804 22.7794 3.93934 23.0607C4.22064 23.342 4.60218 23.5 5 23.5C5.39782 23.5 5.77936 23.342 6.06066 23.0607C6.34196 22.7794 6.5 22.3978 6.5 22C6.5 21.6022 6.34196 21.2206 6.06066 20.9393C5.77936 20.658 5.39782 20.5 5 20.5C4.60218 20.5 4.22064 20.658 3.93934 20.9393C3.65804 21.2206 3.5 21.6022 3.5 22Z" stroke="white" stroke-linecap="round" stroke-linejoin="round"/>
<path d="M11.5 7.5H10.8C10.5734 7.50001 10.3535 7.577 10.1763 7.71835C9.99919 7.8597 9.87531 8.05703 9.825 8.278L7.677 17.722C7.62661 17.9433 7.50244 18.1409 7.32489 18.2823C7.14734 18.4237 6.92697 18.5004 6.7 18.5H0.5" stroke="white" stroke-linecap="round" stroke-linejoin="round"/>
<path d="M1 9.5H5C5 9.5 5.5 9.5 5.5 10V16C5.5 16 5.5 16.5 5 16.5H1C1 16.5 0.5 16.5 0.5 16V10C0.5 10 0.5 9.5 1 9.5Z" stroke="white" stroke-linecap="round" stroke-linejoin="round"/>
<path d="M20.5 23.5L21 17.5H23.5V14C23.5 12.6739 22.9732 11.4021 22.0355 10.4645C21.0979 9.52678 19.8261 9 18.5 9C17.1739 9 15.9021 9.52678 14.9645 10.4645C14.0268 11.4021 13.5 12.6739 13.5 14V17.5H16L16.5 23.5H20.5Z" stroke="white" stroke-linecap="round" stroke-linejoin="round"/>
<path d="M15 4C15 4.92826 15.3687 5.8185 16.0251 6.47487C16.6815 7.13125 17.5717 7.5 18.5 7.5C19.4283 7.5 20.3185 7.13125 20.9749 6.47487C21.6313 5.8185 22 4.92826 22 4C22 3.07174 21.6313 2.1815 20.9749 1.52513C20.3185 0.868749 19.4283 0.5 18.5 0.5C17.5717 0.5 16.6815 0.868749 16.0251 1.52513C15.3687 2.1815 15 3.07174 15 4Z" stroke="white" stroke-linecap="round" stroke-linejoin="round"/>
<path d="M21.964 3.5H13" stroke="white" stroke-linecap="round" stroke-linejoin="round"/>
</g>
<defs>
<clipPath id="clip0_649_2070">
<rect width="24" height="24" fill="white"/>
</clipPath>
</defs>
</svg>
